<?xml version="1.0" standalone="no"?><!DOCTYPE svg PUBLIC "-//W3C//DTD SVG 1.1//EN" "http://www.w3.org/Graphics/SVG/1.1/DTD/svg11.dtd"><svg t="1582902096509" class="icon" viewBox="0 0 1024 1024" version="1.1" xmlns="http://www.w3.org/2000/svg" p-id="839" xmlns:xlink="http://www.w3.org/1999/xlink" width="200" height="200"><defs><style type="text/css"></style></defs><path d="M481.11 522.45h-356a25 25 0 0 1-25-25v-356a25 25 0 0 1 25-25h356a25 25 0 0 1 25 25v356a25 25 0 0 1-25 25z m-355-26h354v-354h-354zM481.11 925.85h-326a25 25 0 0 1-25-25v-326a25 25 0 0 1 25-25h326a25 25 0 0 1 25 25v326a25 25 0 0 1-25 25z m-325-26h324v-324h-324zM901.78 925.48h-326a25 25 0 0 1-25-25v-326a25 25 0 0 1 25-25h326a25 25 0 0 1 25 25v326a25 25 0 0 1-25 25z m-325-26h324v-324h-324zM901.78 522.45h-326a25 25 0 0 1-25-25v-326a25 25 0 0 1 25-25h326a25 25 0 0 1 25 25v326a25 25 0 0 1-25 25z m-325-26h324v-324h-324z" p-id="840" fill="#409EFF"></path><path d="M378.38 442.11l-80.09-109.84h-61.51v109.84H212V198.73h87.93c59.86 0 100.31 17.7 100.31 65.1 0 38.73-29.31 61.1-75.13 66.77l81.33 111.51z m-141.6-126.53h57.38c52 0 80.91-16.69 80.91-51.75 0-35.38-28.89-48.4-80.91-48.4h-57.38z" p-id="841" fill="#409EFF"></path></svg>