<?xml version="1.0" standalone="no"?><!DOCTYPE svg PUBLIC "-//W3C//DTD SVG 1.1//EN" "http://www.w3.org/Graphics/SVG/1.1/DTD/svg11.dtd"><svg t="1582902087071" class="icon" viewBox="0 0 1024 1024" version="1.1" xmlns="http://www.w3.org/2000/svg" p-id="590" xmlns:xlink="http://www.w3.org/1999/xlink" width="200" height="200"><defs><style type="text/css"></style></defs><path d="M678.67 856.81c-52 0-94.36-42.83-94.36-95.48a95.86 95.86 0 0 1 31.3-71H432.24a95.83 95.83 0 0 1 31.31 71c0 52.65-42.33 95.48-94.37 95.48s-94.36-42.81-94.36-95.48a95.93 95.93 0 0 1 50.62-84.62 91.68 91.68 0 0 1-17-14.63l-0.32-0.14h0.2c-13-14.27-23.22-33.64-30.24-57.58l-0.22-0.84-8.14-35.81-44.45-195.18-10.21-57.07a36.74 36.74 0 0 1-1.33-7.22c-0.19-1.25-0.28-1.73-1-6l-6.05-33.92-1.3-9.28h-42.5a33.4 33.4 0 0 1 0.12-66.79h71.14A33.37 33.37 0 0 1 267 221l5.22 37.25 2.5 14H803.9a77.19 77.19 0 0 1 63.89 34.13l2.43 3.6v0.25c12.11 20.39 13.93 45.28 4.91 69l-0.25 0.6-15.58 35.83-84.69 195c-15 31.5-32.12 53.31-51.94 66a95.93 95.93 0 0 1 50.4 84.5c-0.07 52.84-42.37 95.65-94.4 95.65z m-4.81-166.36l-20.9 9a67.17 67.17 0 0 0-40.31 61.85c0 37 29.62 67.14 66 67.14s66-30.12 66-67.14c0-30.29-20.09-57-48.84-64.84z m-299.82 0l-22 6c-28.77 7.89-48.87 34.56-48.87 64.86 0 37 29.61 67.14 66 67.14s66-30.12 66-67.14a67.15 67.15 0 0 0-40.3-61.84z m-12.5-28.53H686.3l8.46-2.86c20.07-6.81 38.28-27.09 54.12-60.26l84.39-194.37 15.44-35.52c6.23-16.61 4.66-33.13-4.44-46.56l-0.39-0.59a48.86 48.86 0 0 0-40-21.1L251 300.63l-6.83-38.15-5.28-37.48a5 5 0 0 0-4.75-4.32H163a5.06 5.06 0 0 0 0.06 10.1H230l4.66 33.44 5.92 33.1c0.91 5 0.93 5.14 1.25 7.25l0.09 0.6v0.61a8.58 8.58 0 0 0 0.39 2.09l0.29 0.9 10.41 58.16 44.31 194.54 8.05 35.38c9.86 33.38 26.39 54.92 47.83 62.29z" p-id="591" fill="#409EFF"></path><path d="M495.38 485.05V447c0-4.32 2.15-6.48 6.48-6.48H534v-0.28h2.82a47.53 47.53 0 0 1 5.35 0.84 26.63 26.63 0 0 1 13.24 6.49 21.18 21.18 0 0 1 4.51 6.76 25.57 25.57 0 0 1 2.26 11q-0.85 26.49-27.34 26.48H534l0.28-0.28h-26.2v39.17q0 6.48-6.2 6.48c-4.33 0-6.48-2.16-6.48-6.48v-45.65z m12.68-6.2h26.2v-0.28q14.37 0.29 14.65-13.52 0-5.35-2.81-7.89c-1.51-1.7-3.86-2.82-7.05-3.39a19.89 19.89 0 0 0-3.1-0.28h-1.13v-0.28h-26.76zM532 498.58a6.22 6.22 0 0 1 5.35 2.81l21.13 25.08q4.23 4.8-0.56 9t-9-0.56l-21.69-25.65a7.06 7.06 0 0 1-1.69-3.66v-0.84c-0.01-4.11 2.14-6.18 6.46-6.18z" p-id="592" fill="#409EFF"></path><path d="M526.37 601.08a111 111 0 1 1 111-111 111.08 111.08 0 0 1-111 111z m0-202.07a91.12 91.12 0 1 0 91.12 91.11A91.22 91.22 0 0 0 526.37 399zM342.13 700c2.25-2.06 37.13-13.56 61.95 4.19s9.23-16.3 9.23-16.3l-38.77-6.36s-34.91 1.71-35.13 3S341.1 699 341.1 699zM645.92 702.9c4.52-2.87 36.23-13.95 58.22-3.69s7.63-12 7.63-12l-42.26-11.15-23.59 11-7 17.12z" p-id="593" fill="#409EFF"></path></svg>