<?xml version="1.0" standalone="no"?><!DOCTYPE svg PUBLIC "-//W3C//DTD SVG 1.1//EN" "http://www.w3.org/Graphics/SVG/1.1/DTD/svg11.dtd"><svg class="icon" width="200px" height="162.54px" viewBox="0 0 1260 1024" version="1.1" xmlns="http://www.w3.org/2000/svg"><path fill="#333333" d="M1018.745125 761.606569H551.411563c-86.179952 0-161.149504-58.854601-181.468354-142.231954L258.539856 169.557304c-14.013-57.453301-65.160452-96.689702-124.015053-96.689702H36.433801C16.8156 72.867602 0 56.752651 0 36.433801 0 16.8156 16.11495 0 36.433801 0h98.091002c92.485802 0 172.359904 62.357852 194.080055 152.041054l111.403353 449.817311c12.6117 51.147451 58.854601 87.581252 111.403352 87.581252h467.333562c53.249401 0 98.791652-35.733151 111.403353-87.581252l55.351351-222.806706c4.2039-16.8156 0.70065-35.032501-10.50975-49.045501-10.50975-14.013-27.325351-21.720151-44.841601-21.72015H518.481013c-19.6182 0-36.433801-16.11495-36.433801-36.433801 0-19.6182 16.11495-36.433801 36.433801-36.433801h611.667465c39.937051 0 77.071502 18.2169 101.594252 49.746151s32.930551 72.166952 23.822101 110.702703l-55.351352 222.806705c-21.019501 83.377352-95.288402 142.231953-181.468354 142.231954zM405.67636 936.769073c0 30.828601 16.8156 59.555251 43.440301 75.670202 26.624701 15.4143 60.255901 15.4143 86.880602 0s43.440301-44.140951 43.440301-75.670202c0-48.344851-39.236401-86.880602-86.880602-86.880602-48.344851 0-86.880602 39.236401-86.880602 86.880602zM971.801574 936.769073c0 48.344851 39.236401 86.880602 86.880602 86.880602 48.344851 0 86.880602-39.236401 86.880602-86.880602 0-48.344851-39.236401-86.880602-86.880602-86.880602-48.344851 0-86.880602 39.236401-86.880602 86.880602z" /></svg>