<?xml version="1.0" standalone="no"?><!DOCTYPE svg PUBLIC "-//W3C//DTD SVG 1.1//EN" "http://www.w3.org/Graphics/SVG/1.1/DTD/svg11.dtd"><svg class="icon" width="200px" height="200.00px" viewBox="0 0 1024 1024" version="1.1" xmlns="http://www.w3.org/2000/svg"><path fill="#333333" d="M298.518002 0h426.963996c36.868757 0 70.764228 14.866434 95.14518 39.247387s39.842044 57.681765 39.842044 94.550522v755.809524c0 36.868757-15.461092 70.16957-39.842044 94.550523s-58.276423 39.247387-95.14518 39.247387H298.518002c-36.868757 0-70.764228-14.866434-95.14518-39.247387s-39.842044-57.681765-39.842044-94.550523V133.797909c0-36.868757 15.461092-70.16957 39.842044-94.550522S261.649245 0 298.518002 0z m484.645761 943.721254c10.703833-10.703833 17.245064-25.570267 17.839721-41.626016v-84.441347H223.591173v84.441347c0 16.055749 6.541231 30.922184 17.245064 41.626016s25.570267 17.245064 42.220674 17.245064h458.480836c16.650407 0 31.516841-6.541231 42.220673-17.245064z m-560.167247-178.99187h577.412311V198.020906H222.996516v566.708478z m1.189314-641.04065v26.164925h575.033682v-26.164925c0-16.650407-8.919861-33.89547-22.002323-46.977933s-30.327526-22.002323-46.977932-22.002322H293.166086c-16.650407 0-33.89547 8.919861-46.977933 22.002322s-22.002323 30.327526-22.002323 46.977933zM511.405343 887.823461m-41.031359 0a41.031359 41.031359 0 1 0 82.062718 0 41.031359 41.031359 0 1 0-82.062718 0Z" /></svg>