<?xml version="1.0" standalone="no"?><!DOCTYPE svg PUBLIC "-//W3C//DTD SVG 1.1//EN" "http://www.w3.org/Graphics/SVG/1.1/DTD/svg11.dtd"><svg class="icon" width="200px" height="200.00px" viewBox="0 0 1024 1024" version="1.1" xmlns="http://www.w3.org/2000/svg"><path fill="#333333" d="M985.042695 320.240308c13.156119 34.09473 5.744221 73.748383-18.900339 100.245917-47.250848 51.142095-47.250848 132.487672 0 185.297444 24.64456 26.497534 32.241755 66.151188 18.900339 100.245917-17.047365 43.544899-41.691925 85.051527-70.042434 120.999231-22.606288 28.350509-60.592264 41.691925-94.501696 34.09473-34.09473-7.597195-68.189459-1.852974-98.392943 15.19439s-51.142095 45.397874-62.445238 77.639629c-11.303144 35.947704-41.691925 60.592264-77.639629 66.151188-22.606288 1.852974-47.250848 3.705949-70.042434 3.705949-22.606288 0-47.250848-1.852974-70.042434-5.744221-35.947704-5.744221-66.151188-30.203483-77.639629-66.151188-20.753314-68.189459-90.795748-107.843112-160.838182-92.648722-35.947704 7.597195-71.895408-5.744221-94.501696-34.094729-28.350509-37.800679-52.995069-77.639629-70.042434-120.999231-13.156119-34.09473-5.744221-73.748383 18.900339-100.245918 47.250848-51.142095 47.250848-132.487672 0-185.297444C33.169725 392.135716 25.57253 352.482063 38.913946 318.387333c17.047365-43.544899 41.691925-85.051527 70.042434-120.999231 22.606288-28.350509 60.592264-41.691925 96.539968-34.094729 34.09473 7.597195 68.004162 1.852974 98.392943-15.194391 30.203483-17.047365 51.142095-45.397874 62.445239-77.639629 11.303144-35.947704 41.691925-60.592264 77.639629-66.151187 45.397874-5.744221 92.648722-5.744221 139.89957 0 35.947704 5.744221 66.151188 30.203483 77.639629 66.151187 9.45017 32.241755 32.241755 60.592264 62.445239 77.639629s64.298213 22.606288 98.392942 15.194391c35.947704-7.597195 73.748383 5.744221 94.501697 34.094729 26.497534 39.653653 51.142095 79.492603 68.189459 123.037503z m-70.042434 28.350509c-15.19439-35.947704-35.947704-71.895408-60.592264-102.098892-3.705949-5.744221-11.303144-7.597195-18.900339-5.744221-51.142095 11.303144-105.990138 3.705949-151.388012-22.606288-47.250848-26.497534-81.345578-70.042434-96.539968-120.999231-1.852974-7.597195-7.597195-13.156119-15.194391-13.156118-39.653653-5.744221-79.492603-5.744221-119.146256 0-7.597195 1.852974-13.156119 5.744221-15.19439 13.156118-15.19439 51.142095-49.103823 94.501696-96.539969 120.999231-45.397874 26.497534-100.245917 34.09473-153.240986 22.606288-7.597195-1.852974-15.19439 1.852974-18.900339 5.744221-24.64456 32.241755-45.397874 66.151188-60.592265 102.098892-1.852974 7.597195-1.852974 15.19439 3.705949 20.753313 73.748383 81.345578 73.748383 206.236055 0 287.581633-5.744221 5.744221-5.744221 13.156119-3.705949 18.90034 15.19439 37.800679 35.947704 71.895408 58.553993 102.098891 3.705949 5.744221 13.156119 7.597195 18.900339 7.597196 107.843112-24.64456 215.686225 39.653653 249.780955 143.790816 1.852974 7.597195 7.597195 11.303144 15.19439 13.156119 18.900339 1.852974 39.653653 3.705949 58.73929 3.705949 20.753314 0 39.653653-1.852974 60.592264-3.705949 7.597195-1.852974 13.156119-5.744221 15.19439-13.156119 15.19439-51.142095 49.103823-94.501696 96.539969-120.999231 45.397874-26.497534 100.245917-34.09473 153.240986-22.606288 7.597195 1.852974 15.19439-1.852974 18.900339-5.744221 24.64456-32.241755 45.397874-66.151188 60.592264-102.098891 1.852974-5.744221 1.852974-15.19439-3.705948-20.753314-73.748383-81.345578-73.748383-206.236055 0-287.581633 5.744221-5.744221 5.744221-13.156119 3.705948-20.753314zM504.566423 702.323637c-103.951866 0-189.18869-85.051527-189.18869-189.18869 0-103.951866 85.051527-189.18869 189.18869-189.18869s189.18869 85.051527 189.18869 189.18869-83.198552 189.18869-189.18869 189.18869z m0-75.601357c62.445239 0 113.587333-51.142095 113.587333-113.587333s-51.142095-113.587333-113.587333-113.587333-113.587333 51.142095-113.587333 113.587333 51.142095 113.587333 113.587333 113.587333z" /></svg>