<?xml version="1.0" standalone="no"?><!DOCTYPE svg PUBLIC "-//W3C//DTD SVG 1.1//EN" "http://www.w3.org/Graphics/SVG/1.1/DTD/svg11.dtd"><svg class="icon" width="200px" height="186.52px" viewBox="0 0 1098 1024" version="1.1" xmlns="http://www.w3.org/2000/svg"><path fill="#333333" d="M476.665467 606.040816c0 46.297017-67.516484 74.268132-142.106122 105.13281-37.616327 15.432339-77.483203 32.150706-106.740346 48.869074-155.287912 89.378964-156.57394 86.163893-155.609419 192.261225h953.589953l0.321507-9.645212c2.250549-93.558556 3.215071-100.310204-153.680377-181.651492l-176.828885-81.662794c-69.445526-28.292622-80.376766-62.050863-62.050864-108.026374 8.037677-20.254945 22.827002-39.545369 40.188383-62.693877 35.365777-47.261538 84.556358-111.884458 84.556358-205.121507 0-76.197174-13.503297-117.028571-52.405651-168.148195-29.257143-38.259341-74.589639-63.336892-142.42763-63.336892-74.911146 0-127.316797 20.576452-161.718053 58.192779-35.687284 38.902355-54.656201 61.086342-61.729356 134.71146-3.536578 38.259341 3.215071 80.376766 17.682888 120.886656 15.432339 42.76044 39.223862 83.591837 68.159498 115.742543 10.288226 11.574254 25.399058 30.543171 36.008791 51.441131 8.680691 17.039874 14.789325 35.365777 14.789325 53.370172z m-169.112716 38.902355c51.119623-21.219466 97.416641-37.616327 97.416641-38.902355 0-5.787127-2.893564-13.18179-6.751649-20.897959-7.394662-14.467818-18.004396-27.971115-25.720565-36.330298-35.04427-39.223862-63.658399-88.092936-81.984301-139.212559-18.004396-49.833595-26.363579-102.882261-21.540974-151.751334 8.359184-88.73595 33.115228-125.066248 80.376766-176.507379C397.574729 28.935636 467.020255 0 563.793881 0c93.237049 0 157.216954 36.008791 199.33438 91.629513 50.155102 65.587441 67.194976 121.851177 67.194977 211.551649 0 117.028571-57.228257 193.225746-99.024176 248.203453-14.467818 18.968917-26.363579 35.04427-30.864678 46.297018-1.286028 3.536578 3.858085 7.71617 22.505494 15.110832 0.964521 0.321507 1.929042 0.643014 2.893564 1.286028l177.471899 81.984301c0.321507 0.321507 0.964521 0.321507 1.286029 0.643014 197.405338 102.560754 195.797802 122.815699 192.904238 247.238933-0.321507 10.93124-0.643014 22.827002-0.643014 44.046468 0 19.933438-16.075353 36.008791-36.008791 36.008791H36.200789c-19.933438 0-36.008791-16.075353-36.008791-36.008791v-32.150707c-1.286028-140.820094-1.607535-146.607221 191.61821-258.170172 33.758242-19.290424 75.55416-36.651805 115.099529-53.048666z" /></svg>